<?xml version="1.0" encoding="UTF-8" standalone="no"?>
<svg
   viewBox="0 0 512 512"
   version="1.1"
   id="svg1"
   sodipodi:docname="moon.svg"
  
  
   inkscape:version="1.4.3 (fcd0343856, 2026-01-01)"
   xmlns:inkscape="http://www.inkscape.org/namespaces/inkscape"
   xmlns:sodipodi="http://sodipodi.sourceforge.net/DTD/sodipodi-0.dtd"
   xmlns="http://www.w3.org/2000/svg"
   xmlns:svg="http://www.w3.org/2000/svg">
  <defs
     id="defs1" />
  <sodipodi:namedview
     id="namedview1"
     pagecolor="#ffffff"
     bordercolor="#000000"
     borderopacity="0.25"
     inkscape:showpageshadow="2"
     inkscape:pageopacity="0.0"
     inkscape:pagecheckerboard="0"
     inkscape:deskcolor="#d1d1d1"
     inkscape:zoom="1.1357422"
     inkscape:cx="-1.760963"
     inkscape:cy="337.66466"
     inkscape:window-width="2494"
     inkscape:window-height="1371"
     inkscape:window-x="26"
     inkscape:window-y="23"
     inkscape:window-maximized="0"
     inkscape:current-layer="svg1" />
  <!--! Font Awesome Free 6.7.2 by @fontawesome - https://fontawesome.com License - https://fontawesome.com/license/free (Icons: CC BY 4.0, Fonts: SIL OFL 1.1, Code: MIT License) Copyright 2024 Fonticons, Inc. -->
  <path
     d="m 289.53611,32 c -123.5,0 -223.499997,100.3 -223.499997,224 0,123.7 99.999997,224 223.499997,224 60.6,0 115.5,-24.2 155.8,-63.4 5,-4.9 6.3,-12.5 3.1,-18.7 -3.2,-6.2 -10.1,-9.7 -17,-8.5 -9.8,1.7 -19.8,2.6 -30.1,2.6 -96.9,0 -175.5,-78.8 -175.5,-176 0,-65.8 36,-123.1 89.3,-153.3 6.1,-3.5 9.2,-10.5 7.7,-17.3 -1.5,-6.8 -7.3,-11.9 -14.3,-12.5 -6.3,-0.5 -12.6,-0.8 -19,-0.8 z"
     id="path1" />
</svg>
