<svg xmlns="http://www.w3.org/2000/svg" class="mm-figure" viewBox="0 0 413 101" width="413" height="101" role="img" style="display: block; margin: 0 auto; width: 50%; max-width: 100%; height: auto;"><style>
.mm-figure {
  --mm-ink: #000000;
  --mm-surface: #ffffff;
  --mm-reg-fill: #fff2cc;
  --mm-reg-stroke: #d6b656;
  --mm-green: #82b366;
  --mm-red: #b85450;
}
@media (prefers-color-scheme: dark) {
  .mm-figure:not([data-theme="light"] *) {
    --mm-ink: #e0e0e0;
    --mm-surface: #161b22;
    --mm-reg-fill: #3d3520;
    --mm-reg-stroke: #b49a45;
    --mm-green: #8fc47a;
    --mm-red: #d3706c;
  }
}
[data-theme="dark"] .mm-figure {
  --mm-ink: #e0e0e0;
  --mm-surface: #161b22;
  --mm-reg-fill: #3d3520;
  --mm-reg-stroke: #b49a45;
  --mm-green: #8fc47a;
  --mm-red: #d3706c;
}
</style><g transform="translate(0.5,0.5)"><rect x="34" y="0" width="340" height="100" fill="var(--mm-surface)" stroke="var(--mm-ink)"/><path d="M 125 65 L 145 65 L 144 65 L 157.63 65" fill="none" stroke="var(--mm-ink)" stroke-miterlimit="10"/><path d="M 162.88 65 L 155.88 68.5 L 157.63 65 L 155.88 61.5 Z" fill="var(--mm-ink)" stroke="var(--mm-ink)" stroke-miterlimit="10"/><rect x="47" y="40" width="78" height="50" fill="var(--mm-surface)" stroke="var(--mm-ink)"/><g transform="translate(67.5,58.5)"><text x="18" y="12" fill="var(--mm-ink)" text-anchor="middle" font-size="12px" font-family="Helvetica, Arial, sans-serif">reader</text></g><path d="M 242 65 L 279.63 65" fill="none" stroke="var(--mm-ink)" stroke-miterlimit="10"/><path d="M 284.88 65 L 277.88 68.5 L 279.63 65 L 277.88 61.5 Z" fill="var(--mm-ink)" stroke="var(--mm-ink)" stroke-miterlimit="10"/><rect x="164" y="40" width="78" height="50" fill="var(--mm-surface)" stroke="var(--mm-ink)"/><g transform="translate(192.5,58.5)"><text x="10" y="12" fill="var(--mm-ink)" text-anchor="middle" font-size="12px" font-family="Helvetica, Arial, sans-serif">dotf</text></g><rect x="286" y="40" width="78" height="50" fill="var(--mm-surface)" stroke="var(--mm-ink)"/><g transform="translate(309.5,58.5)"><text x="15" y="12" fill="var(--mm-ink)" text-anchor="middle" font-size="12px" font-family="Helvetica, Arial, sans-serif">writer</text></g><g transform="translate(174.5,13.5)"><text x="29" y="12" fill="var(--mm-ink)" text-anchor="middle" font-size="12px" font-family="Helvetica, Arial, sans-serif">mmmult2d</text></g><path d="M 364 65 L 397.63 65" fill="none" stroke="var(--mm-ink)" stroke-miterlimit="10"/><path d="M 402.88 65 L 395.88 68.5 L 397.63 65 L 395.88 61.5 Z" fill="var(--mm-ink)" stroke="var(--mm-ink)" stroke-miterlimit="10"/><path d="M 7 64 L 40.63 64" fill="none" stroke="var(--mm-ink)" stroke-miterlimit="10"/><path d="M 45.88 64 L 38.88 67.5 L 40.63 64 L 38.88 60.5 Z" fill="var(--mm-ink)" stroke="var(--mm-ink)" stroke-miterlimit="10"/></g></svg>
